<svg width="601" height="660" viewBox="0 0 601 660" fill="none" xmlns="http://www.w3.org/2000/svg">
<path d="M266.282 623.959L246.173 806.719C252.273 809.243 258.561 811.342 264.985 813L285.743 625.95L291.256 625.95L300.338 544.604L309.419 626.103L315.42 626.103L336.015 812.234C342.08 810.759 348.039 808.917 353.854 806.719L333.745 624.112L340.069 624.112L331.312 545.983L357.097 620.742L363.584 618.75L414.343 766.582C418.235 763.212 422.938 758.922 428.29 753.714L379.639 613.541L386.45 611.55L361.8 539.855L401.694 605.116L408.343 601.439L471.589 704.845C474.994 700.556 478.562 695.96 482.13 691.058L422.614 593.626L429.749 589.796L391.639 527.293L442.723 581.064L449.047 575.703L513.915 644.18C516.672 639.891 519.429 635.448 522.023 630.852L460.886 565.285L467.535 559.464L418.884 508.297L477.913 548.894L483.427 541.694L547.322 585.66L553.646 572.945L492.184 530.97L498.022 523.463L441.75 485.012L505.32 511.821L509.536 502.476L573.431 529.285L578.134 517.183L515.05 490.68L519.429 481.335L459.102 456.058L523.969 468.926L525.753 458.816L592.892 472.297L595.486 460.654L528.348 447.173L530.781 436.449L469.643 423.734L532.24 423.734L532.24 413.011L601 413.011L601 401.981L532.24 401.981L532.24 390.185L436.722 390.185L436.722 386.815L529.159 368.278L531.916 380.227L598.567 366.899C596.734 354.475 593.97 342.188 590.297 330.133L523.645 343.461L526.24 355.103L525.105 355.103L433.641 373.487C432.506 369.197 431.046 365.061 429.425 360.772L515.861 324.465L520.726 334.882L582.675 308.839L581.864 306.847C577.648 295.664 573.269 284.941 568.89 274.523L504.023 301.486L508.726 311.596L507.753 311.596L422.289 347.597C420.343 343.92 418.073 340.397 415.802 336.873L493.319 284.787L499.806 293.06L558.187 252.157C552.836 240.668 547.322 229.638 541.97 219.067L477.103 264.106L483.427 272.226L406.721 324.771C404.126 321.86 401.532 319.103 398.775 316.499L462.183 249.859L469.481 256.14L528.672 193.943C522.348 182.76 515.861 172.19 509.374 162.232L441.912 233.008L449.209 239.136L385.639 305.775C382.882 303.63 379.801 301.486 376.72 299.494L424.235 221.978L432.019 226.114L489.103 132.666C481.157 121.636 472.886 111.678 466.075 102.027L401.207 209.263L408.991 213.399L361.476 291.222C358.364 289.688 355.17 288.307 351.908 287.085L380.936 201.603L388.72 204.054L435.425 68.1713C422.776 56.069 412.235 46.8773 407.532 42.2815L355.475 193.943L363.26 196.395L334.069 281.417C332.447 281.417 330.826 281.417 329.204 280.192C327.582 278.966 326.123 280.192 324.663 280.192L334.556 190.88L341.691 190.88L361.476 11.4895C351.197 6.47005 340.304 2.66275 329.042 0.153186L308.284 187.662L315.582 187.662L305.689 276.975L296.608 276.975L286.716 187.662L293.04 187.662L271.958 -1.43829e-05C260.708 2.40452 249.815 6.10906 239.524 11.0299L259.633 190.88L266.282 190.88L276.175 280.192C273.418 280.192 270.823 281.264 268.228 281.877L238.713 195.935L243.903 193.943L191.846 42.8943C186.333 47.4901 177.413 55.303 166.224 66.4861L213.415 203.288L218.929 201.603L248.281 287.085L241.47 289.996L193.955 212.173L197.847 210.029L132.979 103.865C126.654 111.678 119.843 120.41 113.032 129.755L170.927 224.582L175.305 222.131L222.821 301.179C221.037 302.405 219.091 303.63 217.307 305.009L152.764 237.45L155.52 235.153L88.3823 164.683C83.1929 172.956 77.8413 181.535 72.1654 190.726L132.655 254.149L136.547 251.544L201.414 318.337L197.198 322.473L120.33 269.621L121.951 267.63L57.0836 222.744C52.8672 230.863 48.6509 239.289 44.5966 248.174L104.113 289.843L106.059 287.239L182.927 340.09C181.914 341.464 180.993 342.897 180.17 344.38L93.4096 307.92L93.4096 306.235L28.5418 278.966C25.1363 286.779 21.8928 294.285 18.8116 303.017L18.8116 303.937L82.0577 330.592L83.0307 328.294L169.954 364.908L168.332 369.044L75.4088 350.354L75.4088 349.129L7.7841 335.648C5.51372 343.767 3.56767 352.193 2.1082 360.772L69.7329 374.253L69.7329 372.874L164.115 391.564L164.115 395.393L69.0842 395.393L4.3752e-05 395.393C4.35779e-05 399.376 4.33971e-05 403.513 4.32163e-05 407.649C4.30355e-05 411.785 4.28547e-05 415.921 4.26739e-05 420.058L68.5977 420.058L163.467 420.058L163.467 423.121L71.6789 440.739L3.89207 454.526C5.35154 462.492 7.13548 469.846 9.24369 477.812L76.8683 464.177L168.981 446.101L169.791 448.398L83.3551 485.012L83.3551 486.084L19.9468 512.74L28.704 534.187L93.5717 507.072L180.819 471.224L181.792 472.756L104.113 525.455L105.41 527.14L44.1101 569.268L55.4619 589.49L120.33 544.911L120.33 546.289L197.198 493.591L134.925 561.609L137.195 563.447L75.571 627.788L87.8958 646.631L153.737 576.928L155.845 578.613L219.253 512.127L171.737 589.796L174.981 591.481L115.789 688.3C120.492 694.581 125.033 700.556 129.573 706.071L193.468 601.592L196.712 603.278L243.416 526.681L214.55 610.784L218.767 612.01L170.116 751.722C176.603 758.003 182.116 762.906 186.333 767.042L237.578 618.29L241.957 619.669L269.688 538.783L260.282 623.346L266.282 623.959Z" fill="#104751"/>
</svg>
