<svg width="35" height="36" viewBox="0 0 35 36" fill="none" xmlns="http://www.w3.org/2000/svg">
<path d="M29.7215 21.7893C30.7617 21.9902 31.4584 23.0009 31.2044 24.0295C30.6677 26.2028 29.9279 27.6807 27.9258 29.4223C25.397 31.6219 22.2045 32.9112 18.8575 33.0847C15.5104 33.2581 12.2017 32.3056 9.45922 30.3791C6.71669 28.4527 4.69835 25.6632 3.72618 22.4558C2.75401 19.2484 2.88403 15.8077 4.09548 12.6828C5.30694 9.5579 7.53004 6.92873 10.4101 5.21472C13.2902 3.50072 16.6614 2.80065 19.9858 3.22618C22.6813 3.57122 25.2203 4.6402 27.34 6.30328C28.1814 6.96337 28.2148 8.18691 27.5174 8.99767V8.99767C26.7353 9.90708 25.3408 9.94384 24.3306 9.29705C22.8502 8.3492 21.095 7.70587 19.4395 7.49396C17.0687 7.19048 14.6645 7.68975 12.6105 8.91211C10.5566 10.1345 8.97112 12.0095 8.10716 14.2381C7.2432 16.4666 7.15048 18.9203 7.84379 21.2077C8.5371 23.4952 9.97651 25.4845 11.9324 26.8584C13.8882 28.2322 16.2479 28.9115 18.6348 28.7878C21.0218 28.6641 23.2986 27.7446 25.102 26.1759C26.3311 25.1068 26.9452 24.3785 27.3552 23.2801C27.7256 22.2876 28.6812 21.5884 29.7215 21.7893V21.7893Z" fill="black"/>
<rect x="26.8423" y="13" width="4.55769" height="4.44231" transform="rotate(10.9295 26.8423 13)" fill="#07424D"/>
</svg>
