<svg width="37" height="36" viewBox="0 0 37 36" fill="none" xmlns="http://www.w3.org/2000/svg">
<path d="M31.3208 20.0522C32.361 20.2531 33.0531 21.265 32.7213 22.2711C31.8799 24.8216 30.3648 27.1115 28.3208 28.8894C25.7921 31.089 22.5996 32.3784 19.2525 32.5518C15.9055 32.7253 12.5968 31.7728 9.85428 29.8463C7.11175 27.9198 5.09341 25.1304 4.12124 21.9229C3.14907 18.7155 3.27909 15.2749 4.49054 12.15C5.702 9.02506 7.9251 6.39589 10.8052 4.68188C13.6853 2.96788 17.0564 2.26781 20.3808 2.69334C23.0764 3.03838 25.6153 4.10736 27.7351 5.77044C28.5765 6.43053 28.6098 7.65407 27.9125 8.46483V8.46483C27.1303 9.37424 25.7359 9.411 24.7257 8.76421C23.2453 7.81636 21.4901 7.17303 19.8345 6.96112C17.4637 6.65764 15.0595 7.15691 13.0056 8.37927C10.9516 9.60162 9.36619 11.4766 8.50222 13.7052C7.63826 15.9338 7.54554 18.3875 8.23885 20.6749C8.93217 22.9623 10.3716 24.9516 12.3274 26.3255C14.2833 27.6994 16.6429 28.3787 19.0299 28.255C21.4169 28.1313 23.6937 27.2118 25.497 25.6431C26.8179 24.4941 28.0746 23.0928 28.8306 21.5029C29.2855 20.5462 30.2805 19.8514 31.3208 20.0522V20.0522Z" fill="black"/>
<rect x="28.0643" y="11.4323" width="4.55769" height="4.44231" transform="rotate(10.9295 28.0643 11.4323)" fill="#07424D"/>
</svg>
