<svg width="610" height="610" viewBox="0 0 610 610" fill="none" xmlns="http://www.w3.org/2000/svg">
<path d="M527.637 347.992C545.667 351.474 557.665 369.013 551.912 386.453C537.329 430.661 511.067 470.352 475.638 501.17C431.807 539.296 376.47 561.645 318.455 564.651C260.439 567.658 203.089 551.148 155.551 517.756C108.014 484.364 73.0297 436.013 56.1787 380.418C39.3278 324.822 41.5814 265.185 62.58 211.02C83.5785 156.854 122.112 111.282 172.034 81.5725C221.955 51.8632 280.389 39.7285 338.012 47.1044C384.735 53.0852 428.743 71.6141 465.486 100.441C480.069 111.882 480.648 133.09 468.561 147.144V147.144C455.003 162.907 430.833 163.544 413.323 152.333C387.663 135.903 357.239 124.752 328.543 121.079C287.448 115.819 245.776 124.473 210.174 145.66C174.572 166.848 147.091 199.348 132.116 237.977C117.14 276.605 115.533 319.136 127.551 358.785C139.568 398.433 164.518 432.915 198.419 456.729C232.321 480.543 273.221 492.317 314.595 490.173C355.97 488.029 395.434 472.091 426.692 444.9C449.588 424.985 471.371 400.694 484.474 373.137C492.36 356.553 509.607 344.51 527.637 347.992V347.992Z" fill="black"/>
<rect x="471.192" y="198.58" width="79" height="77" transform="rotate(10.9295 471.192 198.58)" fill="#07424D"/>
</svg>
